# xmcd
# 
# Track frame offsets:
#     182
#     12362
#     23392
#     36207
#     48142
#     60652
#     70542
#     81727
#     92630
#     104315
#     117697
#     127740
#     137912
#     147595
#     159750
#     174667
#     188070
#     200375
#     215377
#     225492
#     237355
#     247897
#     257787
#     270900
# 
# Disc length: 3768
# 
# Revision: 4
# Processed by: cddbd v1.5.2PL0 Copyright (c) Steve Scherf et al.
# Submitted via: fre:ac v1.1beta1pre5
# 
DISCID=420eb618
DTITLE=Various Artist - Nostalgias CD 1
DYEAR=0
DGENRE=Alt. Rock
TTITLE0=Four Lads - Standing on the corner
TTITLE1=Guy Mitchell - Singing the blues
TTITLE2=Johnnie Ray - Just walking in the rain
TTITLE3=Fast Domino - Blueberry Hill
TTITLE4=The Platters - My Prayer
TTITLE5=Bill Halley - Rock arround the clock
TTITLE6=Jerry Lee Lewis - Be Pop a Lula
TTITLE7=Little Richard - Tutti - Frutti
TTITLE8=Pat Boone - I almost lost my mind
TTITLE9=Gogi Grant - The wayward wind
TTITLE10=Jim Lowe - The Green Door
TTITLE11=Carl Perkins - Blue Swede Shoes
TTITLE12=The Diamonds - Litle Darlin'
TTITLE13=Pat Boone - April Love
TTITLE14=B.J.Thomas - Love me tender
TTITLE15=Roger Williams - Autum leaves
TTITLE16=Danny and The Juniors - At the Hop
TTITLE17=Four Lads - Moments to remember
TTITLE18=Jimmie Rodgers - Honeycomb
TTITLE19=The Dell - Vikings - Come go with me
TTITLE20=Buddy Knox - Party Doll
TTITLE21=Little Richard - Keep a Knockin'
TTITLE22=Bobby Helms - My special Angel
TTITLE23=The Platters - The great pretender
EXTD=
EXTT0=
EXTT1=
EXTT2=
EXTT3=
EXTT4=
EXTT5=
EXTT6=
EXTT7=
EXTT8=
EXTT9=
EXTT10=
EXTT11=
EXTT12=
EXTT13=
EXTT14=
EXTT15=
EXTT16=
EXTT17=
EXTT18=
EXTT19=
EXTT20=
EXTT21=
EXTT22=
EXTT23=
PLAYORDER=
